<svg width="164" height="81" viewBox="0 0 164 81" fill="none" xmlns="http://www.w3.org/2000/svg">
<g clip-path="url(#clip0)">
<path fill-rule="evenodd" clip-rule="evenodd" d="M0.133061 61.3379L60.3703 0L78.8122 18.7789L68.6651 29.1114L60.3703 20.6653L34.9049 46.5959H51.4943L37.0166 61.3381H0.132812L0.133061 61.3379ZM163.868 61.3379L103.631 0L85.1893 18.7786L95.3364 29.1111L103.631 20.665L129.096 46.5957H112.507L126.985 61.3379H163.868H163.868ZM82.0006 22.0253L71.8535 32.3578L75.5592 36.1311L65.2824 46.5957H57.8714L43.3937 61.3379H63.6879L82.0006 42.6906L100.313 61.3379H120.608L106.13 46.5957H98.7189L88.4421 36.1311L92.1477 32.3578L82.0006 22.0253V22.0253Z" fill="white"/>
<path d="M0 80.9006V69.163H1.13643V79.8757H7.79277V80.9006H0V80.9006ZM19.669 80.9833C18.8681 80.9833 18.1349 80.8154 17.4692 80.479C16.8034 80.1428 16.2326 79.6966 15.7564 79.1399C15.2803 78.5835 14.9121 77.9468 14.6526 77.2305C14.3927 76.5142 14.2628 75.7812 14.2628 75.0317C14.2628 74.2494 14.4009 73.4997 14.6769 72.7833C14.9529 72.067 15.3344 71.4332 15.8215 70.8823C16.3086 70.3311 16.8822 69.893 17.5424 69.568C18.2027 69.2427 18.9171 69.0803 19.6854 69.0803C20.4862 69.0803 21.2197 69.2538 21.8852 69.6011C22.5509 69.9482 23.119 70.4029 23.59 70.965C24.0607 71.527 24.4261 72.1634 24.6859 72.8744C24.9457 73.5854 25.0756 74.3098 25.0756 75.0484C25.0756 75.831 24.9375 76.5804 24.6615 77.2968C24.3856 78.0131 24.0068 78.6442 23.5251 79.1895C23.0435 79.7351 22.4727 80.1704 21.8124 80.4954C21.1522 80.8207 20.438 80.9831 19.6695 80.9831L19.669 80.9833ZM15.3992 75.032C15.3992 75.6711 15.5021 76.2855 15.7078 76.8754C15.9134 77.465 16.2055 77.9885 16.5844 78.4459C16.9632 78.9032 17.4123 79.2669 17.9319 79.537C18.4516 79.8072 19.0306 79.942 19.669 79.942C20.3183 79.942 20.9082 79.7988 21.4386 79.5122C21.9689 79.2257 22.418 78.8511 22.7861 78.3882C23.154 77.9253 23.4382 77.4017 23.6384 76.8177C23.8386 76.2337 23.9387 75.6385 23.9387 75.0322C23.9387 74.393 23.8331 73.7786 23.622 73.1888C23.4109 72.5992 23.116 72.0784 22.7372 71.6267C22.3584 71.1747 21.9093 70.814 21.3896 70.5438C20.87 70.2737 20.2964 70.1389 19.6687 70.1389C19.0194 70.1389 18.4295 70.2793 17.8991 70.5605C17.3688 70.8415 16.9197 71.2136 16.5516 71.6765C16.1837 72.1394 15.8995 72.6629 15.6993 73.247C15.4991 73.831 15.399 74.4262 15.399 75.0325L15.3992 75.032ZM33.5098 80.9006V69.163H38.3801C38.8779 69.163 39.3352 69.2705 39.752 69.4855C40.1688 69.7005 40.5285 69.9815 40.8316 70.3286C41.1346 70.6756 41.3701 71.0697 41.5378 71.5106C41.7054 71.9514 41.7894 72.3976 41.7894 72.8496C41.7894 73.2793 41.7271 73.6899 41.6026 74.0812C41.4782 74.4725 41.305 74.825 41.083 75.1392C40.8611 75.4533 40.5931 75.7177 40.2794 75.9327C39.9657 76.1477 39.6137 76.2936 39.2242 76.3708L42.049 80.9004H40.7665L38.0552 76.5691H34.6459V80.9004H33.5095L33.5098 80.9006ZM34.6462 75.5444H38.4127C38.7483 75.5444 39.054 75.47 39.33 75.3213C39.606 75.1726 39.8415 74.9715 40.0362 74.7178C40.2309 74.4644 40.3825 74.1778 40.4908 73.8581C40.5991 73.5386 40.653 73.2025 40.653 72.8496C40.653 72.497 40.5906 72.1581 40.4664 71.833C40.342 71.5078 40.1741 71.2242 39.9632 70.9817C39.752 70.7391 39.5031 70.5464 39.2162 70.4029C38.9293 70.2598 38.629 70.1882 38.3153 70.1882H34.6462V75.5444V75.5444ZM58.1465 79.8757V80.9006H50.4024V69.163H58.0004V70.1879H51.5388V74.4198H57.1725V75.3952H51.5388V79.8755H58.1465V79.8757ZM76.7925 80.9006V71.2627L72.5876 78.7185H71.9219L67.717 71.2627V80.9006H66.5806V69.163H67.7493L72.2466 77.1974L76.7761 69.163H77.929V80.9006H76.7925V80.9006ZM91.2501 80.9006V69.163H92.3865V80.9006H91.2501ZM101.568 80.9006V69.163H106.341C106.839 69.163 107.296 69.2705 107.712 69.4855C108.129 69.7005 108.489 69.9815 108.792 70.3286C109.095 70.6756 109.333 71.0697 109.506 71.5106C109.68 71.9514 109.766 72.3976 109.766 72.8496C109.766 73.3345 109.685 73.8001 109.523 74.2466C109.36 74.693 109.133 75.0868 108.841 75.4286C108.549 75.77 108.2 76.0457 107.794 76.2552C107.388 76.4646 106.936 76.5693 106.438 76.5693H102.704V80.9006H101.567H101.568ZM102.704 75.5444H106.39C106.725 75.5444 107.031 75.47 107.307 75.3213C107.583 75.1726 107.818 74.9743 108.013 74.7262C108.208 74.4783 108.359 74.1917 108.468 73.8664C108.576 73.5414 108.63 73.2025 108.63 72.8499C108.63 72.4861 108.568 72.1416 108.443 71.8166C108.319 71.4916 108.151 71.2078 107.94 70.9652C107.729 70.7227 107.48 70.5327 107.193 70.3948C106.906 70.2573 106.606 70.1882 106.292 70.1882H102.704V75.5444H102.704ZM124.695 71.3618C124.37 70.9872 123.937 70.684 123.396 70.4525C122.855 70.2211 122.238 70.1055 121.545 70.1055C120.528 70.1055 119.786 70.301 119.321 70.6923C118.855 71.0836 118.623 71.6153 118.623 72.2876C118.623 72.6402 118.685 72.9295 118.81 73.1554C118.934 73.3813 119.126 73.5771 119.386 73.7422C119.646 73.9076 119.978 74.0508 120.384 74.172C120.79 74.2934 121.269 74.4145 121.821 74.5357C122.438 74.668 122.993 74.8167 123.485 74.9821C123.978 75.1473 124.397 75.3539 124.743 75.6021C125.09 75.8502 125.355 76.1504 125.539 76.503C125.723 76.8556 125.815 77.2965 125.815 77.8256C125.815 78.3657 125.712 78.8341 125.506 79.231C125.301 79.6276 125.014 79.9584 124.646 80.2227C124.278 80.4873 123.84 80.6828 123.331 80.8096C122.822 80.9363 122.265 80.9998 121.659 80.9998C119.873 80.9998 118.331 80.4322 117.032 79.297L117.6 78.3548C117.805 78.5751 118.052 78.7845 118.339 78.9828C118.625 79.1811 118.945 79.3549 119.296 79.5036C119.648 79.6524 120.024 79.7682 120.425 79.8507C120.825 79.9334 121.247 79.9746 121.691 79.9746C122.611 79.9746 123.328 79.8067 123.842 79.4705C124.356 79.1343 124.613 78.6247 124.613 77.9412C124.613 77.5775 124.54 77.2717 124.394 77.0236C124.248 76.7757 124.029 76.5607 123.737 76.3788C123.444 76.197 123.082 76.0399 122.649 75.9076C122.216 75.7753 121.713 75.6431 121.139 75.5108C120.533 75.3676 120.003 75.2186 119.548 75.0643C119.094 74.91 118.709 74.7173 118.396 74.4859C118.082 74.2544 117.846 73.9762 117.689 73.6509C117.532 73.3259 117.454 72.9262 117.454 72.4525C117.454 71.9125 117.554 71.4304 117.754 71.0059C117.954 70.5815 118.239 70.2289 118.607 69.9479C118.974 69.6669 119.407 69.4519 119.905 69.3032C120.403 69.1544 120.955 69.0801 121.561 69.0801C122.33 69.0801 123.014 69.1984 123.615 69.4355C124.216 69.6725 124.76 70.0058 125.246 70.4356L124.695 71.3613L124.695 71.3618ZM138.779 79.9417C139.504 79.9417 140.107 79.8014 140.589 79.5201C141.071 79.2391 141.455 78.8698 141.742 78.4125C142.029 77.9552 142.229 77.4344 142.343 76.8503C142.456 76.2663 142.513 75.6764 142.513 75.0813V69.163H143.649V75.0813C143.649 75.8747 143.563 76.627 143.39 77.338C143.216 78.049 142.938 78.6743 142.553 79.2143C142.169 79.7543 141.669 80.1843 141.052 80.5038C140.435 80.8235 139.682 80.9833 138.795 80.9833C137.886 80.9833 137.12 80.8154 136.498 80.479C135.875 80.1428 135.375 79.6992 134.996 79.1483C134.617 78.5971 134.347 77.9691 134.184 77.2636C134.022 76.5582 133.941 75.831 133.941 75.0813V69.163H135.061V75.0813C135.061 75.6984 135.121 76.2992 135.24 76.8832C135.359 77.4672 135.562 77.9853 135.848 78.4373C136.135 78.8893 136.517 79.2527 136.993 79.5284C137.469 79.8041 138.065 79.9417 138.779 79.9417V79.9417ZM162.864 80.9006V71.2627L158.659 78.7185H157.993L153.788 71.2627V80.9006H152.652V69.163H153.821L158.318 77.1974L162.847 69.163H164V80.9006H162.864V80.9006Z" fill="white"/>
</g>
<defs>
<clipPath id="clip0">
<rect width="164" height="81" fill="white"/>
</clipPath>
</defs>
</svg>
