<svg width="148" height="97" viewBox="0 0 148 97" fill="none" xmlns="http://www.w3.org/2000/svg">
<path fill-rule="evenodd" clip-rule="evenodd" d="M73.3067 5.68481L142.315 19.8811L138.492 38.465L69.4836 24.2687L73.3067 5.68481ZM148 16.1362L142.237 44.1498L63.7988 28.0136L69.5617 -1.23468e-05L148 16.1362Z" fill="#22D92A"/>
<path fill-rule="evenodd" clip-rule="evenodd" d="M61.1251 50.5C61.1251 55.8158 56.8158 60.1251 51.5 60.1251C46.1842 60.1251 41.8749 55.8158 41.8749 50.5C41.8749 45.1842 46.1842 40.8749 51.5 40.8749C56.8158 40.8749 61.1251 45.1842 61.1251 50.5ZM51.5 36C59.5081 36 66 42.4919 66 50.5C66 58.5081 59.5081 65 51.5 65C43.4919 65 37 58.5081 37 50.5C37 42.4919 43.4919 36 51.5 36Z" fill="#22D92A"/>
<path fill-rule="evenodd" clip-rule="evenodd" d="M25.5195 15.7006L18.6816 41.2201L-4.39827e-05 22.5385L25.5195 15.7006ZM18.7121 22.5081L16.1899 31.921L9.29915 25.0302L18.7121 22.5081Z" fill="#22D92A"/>
<path fill-rule="evenodd" clip-rule="evenodd" d="M65.3962 95.0044L87.786 79.9781L85.1035 75.9812L62.7138 91.0075L65.3962 95.0044Z" fill="#22D92A"/>
<path fill-rule="evenodd" clip-rule="evenodd" d="M84.4295 94.0385L69.4032 71.6487L65.4062 74.3312L80.4326 96.7209L84.4295 94.0385Z" fill="#22D92A"/>
</svg>
